<svg id="Layer_1" data-name="Layer 1" xmlns="http://www.w3.org/2000/svg" viewBox="0 0 512 512"><defs><style>.cls-1{fill:#6d4135;}</style></defs><title>wheel-cart-outline</title><path class="cls-1" d="M511.6,147.38a20.48,20.48,0,0,0-20.08-24.5H139.67L122.48,36.94A20.48,20.48,0,0,0,102.4,20.48H20.48a20.48,20.48,0,1,0,0,41H85.61l37.67,188.35,0,.18,12.77,63.86h0l7.67,38.35a20.48,20.48,0,0,0,20.08,16.46H450.56a20.48,20.48,0,0,0,20.08-16.46L491.08,250l0-.21Zm-45.06,16.46-12.29,61.44H160.15l-11.5-57.47-.79-4ZM180.63,327.68l-12.29-61.44H446.06l-12.29,61.44Z"/><circle class="cls-1" cx="225.28" cy="450.56" r="40.96"/><circle class="cls-1" cx="389.12" cy="450.56" r="40.96"/></svg>