<?xml version="1.0" encoding="UTF-8"?>
<svg xmlns="http://www.w3.org/2000/svg" xmlns:xlink="http://www.w3.org/1999/xlink" width="57pt" height="68pt" viewBox="0 0 57 68" version="1.1">
<g id="surface1">
<path style=" stroke:none;fill-rule:nonzero;fill:rgb(55.699158%,50.999451%,19.198608%);fill-opacity:1;" d="M 14.046875 0 L 41.804688 0 C 42.253906 0.0078125 42.71875 0.0507813 43.136719 0.230469 C 43.492188 0.386719 43.746094 0.726563 43.832031 1.097656 C 43.996094 1.796875 43.980469 2.535156 43.828125 3.234375 C 43.570313 4.46875 43.09375 5.644531 42.53125 6.769531 C 41.800781 8.1875 40.902344 9.523438 39.839844 10.714844 C 37.953125 12.714844 35.949219 14.605469 33.921875 16.464844 C 33.378906 15.980469 32.808594 15.527344 32.28125 15.027344 C 33.46875 13.910156 34.550781 12.679688 35.527344 11.371094 C 36.519531 10.03125 37.398438 8.605469 38.074219 7.082031 C 38.367188 6.402344 38.488281 5.613281 38.21875 4.90625 C 37.878906 3.996094 37.015625 3.375 36.09375 3.136719 C 35.667969 3.011719 35.214844 3.039063 34.773438 3.035156 C 31.160156 3.035156 27.546875 3.035156 23.929688 3.035156 C 22.332031 3.035156 20.730469 3.027344 19.128906 3.074219 C 18.46875 3.082031 17.84375 3.550781 17.65625 4.183594 C 17.425781 4.917969 17.609375 5.699219 17.839844 6.40625 C 18.351563 7.839844 19.109375 9.183594 20.054688 10.375 C 20.878906 11.402344 21.796875 12.351563 22.714844 13.292969 C 24.324219 14.964844 26.09375 16.46875 27.824219 18.011719 C 27.273438 18.410156 26.738281 18.824219 26.179688 19.210938 C 24.003906 17.472656 21.851563 15.703125 19.753906 13.871094 C 18.191406 12.472656 16.574219 11.097656 15.316406 9.40625 C 14.175781 7.9375 12.992188 6.449219 12.351563 4.683594 C 12.027344 3.78125 11.871094 2.816406 11.878906 1.855469 C 11.882813 1.402344 12.050781 0.933594 12.398438 0.628906 C 12.847656 0.226563 13.460938 0.0703125 14.046875 0 "/>
<path style=" stroke:none;fill-rule:nonzero;fill:rgb(55.699158%,50.999451%,19.198608%);fill-opacity:1;" d="M 5.265625 7.902344 C 4.492188 7.542969 3.664063 7.253906 2.800781 7.253906 C 2.800781 5.78125 2.789063 4.304688 2.808594 2.828125 C 3.597656 2.824219 4.386719 2.835938 5.179688 2.820313 C 5.238281 3.144531 5.203125 3.476563 5.234375 3.800781 C 5.3125 4.71875 5.453125 5.640625 5.765625 6.511719 C 6.097656 7.410156 6.675781 8.195313 7.34375 8.878906 C 6.664063 8.523438 5.964844 8.214844 5.265625 7.902344 Z M 13.515625 11.503906 C 11.84375 9.652344 10.398438 7.613281 9.007813 5.546875 C 8.648438 5.023438 8.449219 4.386719 8.449219 3.75 C 8.414063 2.472656 8.921875 1.253906 9.558594 0.171875 C 6.441406 0.160156 3.324219 0.171875 0.210938 0.167969 C 0.195313 3.921875 0.210938 7.679688 0.203125 11.4375 C 1.070313 11.085938 1.992188 10.8125 2.941406 10.839844 C 3.574219 10.878906 4.179688 11.078125 4.769531 11.304688 C 5.871094 11.738281 6.925781 12.289063 7.960938 12.859375 C 11.601563 14.90625 15.046875 17.273438 18.441406 19.703125 C 19.105469 19.191406 19.761719 18.667969 20.425781 18.15625 C 17.980469 16.09375 15.640625 13.898438 13.515625 11.503906 "/>
<path style=" stroke:none;fill-rule:nonzero;fill:rgb(55.699158%,50.999451%,19.198608%);fill-opacity:1;" d="M 53.453125 7.363281 C 52.25 7.417969 51.097656 7.835938 50.035156 8.371094 C 49.679688 8.542969 49.355469 8.761719 49.035156 8.992188 C 49.957031 7.714844 50.589844 6.222656 50.769531 4.652344 C 50.875 4.046875 50.84375 3.429688 50.902344 2.824219 C 51.742188 2.832031 52.582031 2.832031 53.421875 2.824219 C 53.445313 2.941406 53.460938 3.058594 53.457031 3.175781 C 53.449219 4.574219 53.460938 5.96875 53.453125 7.363281 Z M 56.394531 0.171875 C 53.238281 0.164063 50.085938 0.164063 46.933594 0.167969 C 47.09375 0.808594 47.300781 1.433594 47.402344 2.085938 C 47.585938 3.578125 47.273438 5.113281 46.566406 6.433594 C 46.238281 7.0625 45.804688 7.628906 45.398438 8.207031 C 43.800781 10.402344 42.015625 12.464844 40.007813 14.292969 C 37.765625 16.390625 35.515625 18.484375 33.21875 20.519531 C 33.058594 20.667969 32.863281 20.789063 32.742188 20.976563 C 33.25 21.359375 33.75 21.753906 34.25 22.148438 C 34.460938 22.035156 34.660156 21.898438 34.859375 21.769531 C 37.753906 19.921875 40.664063 18.097656 43.59375 16.316406 C 46.269531 14.703125 48.941406 13.082031 51.722656 11.65625 C 52.382813 11.34375 53.035156 10.988281 53.753906 10.820313 C 54.675781 10.699219 55.5625 11.089844 56.398438 11.4375 C 56.394531 7.679688 56.40625 3.925781 56.394531 0.171875 "/>
<path style=" stroke:none;fill-rule:nonzero;fill:rgb(55.699158%,50.999451%,19.198608%);fill-opacity:1;" d="M 21.730469 6.511719 C 21.894531 5.910156 22.421875 5.367188 23.078125 5.367188 C 24.886719 5.304688 26.695313 5.347656 28.503906 5.335938 C 29.042969 5.390625 29.582031 5.300781 30.121094 5.34375 C 30.535156 5.355469 30.953125 5.308594 31.367188 5.347656 C 32.089844 5.351563 32.863281 5.238281 33.53125 5.578125 C 33.996094 5.800781 34.351563 6.234375 34.464844 6.738281 C 34.625 7.449219 34.433594 8.179688 34.160156 8.839844 C 33.765625 9.75 33.164063 10.554688 32.527344 11.304688 C 30.804688 13.277344 28.757813 14.9375 26.640625 16.46875 C 26.183594 16.042969 25.714844 15.632813 25.265625 15.199219 C 26.445313 14.242188 27.59375 13.25 28.675781 12.183594 C 29.230469 11.621094 29.789063 11.042969 30.15625 10.335938 C 30.476563 9.734375 30.828125 9.074219 30.707031 8.371094 C 30.613281 7.875 30.167969 7.554688 29.730469 7.367188 C 28.84375 6.980469 27.765625 6.886719 26.898438 7.378906 C 26.539063 7.585938 26.148438 7.859375 26.058594 8.292969 C 25.882813 8.992188 26.175781 9.71875 26.570313 10.292969 C 27.046875 10.9375 27.625 11.503906 28.175781 12.082031 C 27.90625 12.675781 27.355469 13.09375 26.792969 13.402344 C 26.6875 13.488281 26.597656 13.359375 26.519531 13.300781 C 25.519531 12.441406 24.507813 11.589844 23.59375 10.640625 C 22.949219 9.894531 22.347656 9.09375 21.945313 8.191406 C 21.726563 7.667969 21.5625 7.074219 21.730469 6.511719 "/>
<path style=" stroke:none;fill-rule:nonzero;fill:rgb(55.699158%,50.999451%,19.198608%);fill-opacity:1;" d="M 52.625 17.644531 C 52.082031 17.5625 51.53125 17.589844 50.988281 17.613281 C 51.8125 16.527344 53.410156 16.042969 54.65625 16.667969 C 54.714844 17.28125 54.6875 17.898438 54.71875 18.511719 C 54.050781 18.15625 53.378906 17.777344 52.625 17.644531 Z M 54.414063 21.875 C 54.214844 22.421875 53.957031 23.015625 53.414063 23.304688 C 52.976563 22.472656 52.511719 21.625 51.808594 20.984375 C 51.347656 20.550781 50.785156 20.246094 50.191406 20.03125 C 50.957031 19.742188 51.796875 19.753906 52.597656 19.875 C 53.253906 19.976563 53.933594 20.242188 54.347656 20.785156 C 54.601563 21.09375 54.519531 21.527344 54.414063 21.875 Z M 50.742188 23.96875 C 50.644531 24.328125 50.320313 24.609375 49.949219 24.648438 C 49.125 24.785156 48.289063 24.347656 47.832031 23.671875 C 48.355469 23.652344 49.015625 23.726563 49.398438 23.296875 C 49.605469 22.6875 49.328125 22.046875 49.179688 21.453125 C 50.324219 21.601563 50.996094 22.90625 50.742188 23.96875 Z M 56.429688 20.449219 C 56.429688 18.257813 56.429688 16.066406 56.429688 13.875 C 55.175781 13.714844 53.894531 13.820313 52.65625 14.066406 C 51.074219 14.394531 49.539063 15.003906 48.183594 15.886719 C 47.300781 16.480469 46.546875 17.242188 45.816406 18.011719 C 44.632813 19.292969 43.550781 20.664063 42.496094 22.054688 C 42.390625 22.203125 42.257813 22.339844 42.199219 22.515625 C 42.507813 22.746094 42.785156 23.007813 43.097656 23.226563 C 43.640625 22.640625 44.195313 22.027344 44.9375 21.699219 C 45.15625 21.601563 45.429688 21.511719 45.65625 21.640625 C 45.746094 21.738281 45.699219 21.882813 45.710938 21.996094 C 45.714844 23.117188 46.050781 24.25 46.722656 25.152344 C 47.40625 26.054688 48.457031 26.628906 49.558594 26.839844 C 50.863281 27.09375 52.28125 27.054688 53.480469 26.441406 C 54.535156 25.914063 55.308594 24.941406 55.769531 23.875 C 56.226563 22.796875 56.460938 21.621094 56.429688 20.449219 "/>
<path style=" stroke:none;fill-rule:nonzero;fill:rgb(55.699158%,50.999451%,19.198608%);fill-opacity:1;" d="M 6.96875 24.667969 C 6.625 24.683594 6.238281 24.609375 6.015625 24.320313 C 5.691406 23.925781 5.734375 23.367188 5.863281 22.90625 C 6.039063 22.1875 6.636719 21.53125 7.402344 21.464844 C 7.230469 21.984375 7.054688 22.527344 7.101563 23.082031 C 7.113281 23.289063 7.273438 23.445313 7.457031 23.515625 C 7.863281 23.683594 8.316406 23.667969 8.75 23.667969 C 8.34375 24.238281 7.683594 24.667969 6.96875 24.667969 Z M 4.429688 21.316406 C 3.921875 21.914063 3.5 22.582031 3.1875 23.296875 C 2.808594 23.152344 2.570313 22.796875 2.402344 22.449219 C 2.1875 22.023438 1.996094 21.550781 2.070313 21.066406 C 2.339844 20.4375 3.011719 20.097656 3.644531 19.941406 C 4.535156 19.761719 5.492188 19.703125 6.363281 20.023438 C 5.636719 20.316406 4.941406 20.71875 4.429688 21.316406 Z M 1.867188 18.511719 C 1.871094 17.90625 1.894531 17.296875 1.898438 16.691406 C 2.304688 16.390625 2.839844 16.347656 3.324219 16.40625 C 4.191406 16.519531 5.007813 16.960938 5.582031 17.617188 C 4.921875 17.585938 4.246094 17.542969 3.601563 17.71875 C 2.988281 17.902344 2.417969 18.199219 1.867188 18.511719 Z M 16.519531 25.449219 C 15.023438 23.007813 13.375 20.644531 11.449219 18.519531 C 10.535156 17.542969 9.5625 16.601563 8.417969 15.898438 C 6.652344 14.847656 4.664063 14.179688 2.625 13.929688 C 1.796875 13.84375 0.960938 13.777344 0.136719 13.878906 C 0.132813 16.222656 0.136719 18.566406 0.136719 20.910156 C 0.203125 22.21875 0.53125 23.539063 1.210938 24.664063 C 1.800781 25.640625 2.734375 26.417969 3.832031 26.742188 C 5.074219 27.113281 6.433594 27.046875 7.667969 26.667969 C 8.824219 26.304688 9.828125 25.460938 10.332031 24.351563 C 10.742188 23.515625 10.867188 22.578125 10.886719 21.660156 C 11.207031 21.464844 11.578125 21.664063 11.871094 21.816406 C 12.585938 22.238281 13.203125 22.808594 13.746094 23.429688 C 14.519531 24.347656 15.171875 25.355469 15.792969 26.378906 C 16.089844 26.171875 16.378906 25.953125 16.6875 25.765625 C 16.636719 25.660156 16.585938 25.550781 16.519531 25.449219 "/>
<path style=" stroke:none;fill-rule:nonzero;fill:rgb(55.699158%,50.999451%,19.198608%);fill-opacity:1;" d="M 28.816406 15.253906 C 29.320313 14.800781 29.867188 14.398438 30.378906 13.945313 C 31.429688 14.769531 32.445313 15.632813 33.484375 16.46875 C 34.113281 17 34.769531 17.5 35.390625 18.039063 C 35.316406 18.160156 35.191406 18.242188 35.089844 18.339844 C 34.671875 18.691406 34.28125 19.074219 33.859375 19.417969 C 32.277344 18.109375 30.679688 16.8125 29.09375 15.511719 C 29 15.425781 28.878906 15.363281 28.816406 15.253906 "/>
<path style=" stroke:none;fill-rule:nonzero;fill:rgb(55.699158%,50.999451%,19.198608%);fill-opacity:1;" d="M 24.683594 20.863281 C 26.46875 19.558594 28.246094 18.246094 30.039063 16.949219 C 30.636719 17.417969 31.207031 17.925781 31.804688 18.394531 C 31.035156 19.003906 30.214844 19.550781 29.425781 20.136719 C 28.421875 20.863281 27.421875 21.601563 26.40625 22.316406 C 25.832031 21.835938 25.222656 21.386719 24.683594 20.863281 "/>
<path style=" stroke:none;fill-rule:nonzero;fill:rgb(55.699158%,50.999451%,19.198608%);fill-opacity:1;" d="M 22.382813 17.191406 C 22.46875 17.125 22.550781 17.054688 22.632813 16.984375 C 23.179688 17.386719 23.683594 17.84375 24.210938 18.273438 C 21.664063 20.160156 19.113281 22.035156 16.566406 23.917969 C 16.410156 24.023438 16.273438 24.160156 16.105469 24.234375 C 15.785156 23.761719 15.480469 23.277344 15.125 22.828125 C 17.542969 20.949219 19.964844 19.070313 22.382813 17.191406 "/>
<path style=" stroke:none;fill-rule:nonzero;fill:rgb(55.699158%,50.999451%,19.198608%);fill-opacity:1;" d="M 20.832031 21.226563 C 21.453125 20.789063 22.082031 20.363281 22.699219 19.917969 C 24.296875 21.226563 25.871094 22.5625 27.464844 23.878906 C 27.585938 23.984375 27.734375 24.066406 27.808594 24.214844 C 27.203125 24.621094 26.605469 25.035156 26.011719 25.453125 C 24.597656 24.324219 23.207031 23.171875 21.800781 22.03125 C 21.480469 21.761719 21.136719 21.515625 20.832031 21.226563 "/>
<path style=" stroke:none;fill-rule:nonzero;fill:rgb(55.699158%,50.999451%,19.198608%);fill-opacity:1;" d="M 30.386719 19.90625 C 33.527344 22.03125 36.652344 24.183594 39.78125 26.328125 C 39.507813 26.964844 39.273438 27.613281 38.980469 28.238281 C 35.605469 25.878906 32.210938 23.542969 28.832031 21.1875 C 29.347656 20.757813 29.871094 20.339844 30.386719 19.90625 "/>
<path style=" stroke:none;fill-rule:nonzero;fill:rgb(55.699158%,50.999451%,19.198608%);fill-opacity:1;" d="M 38.058594 20.164063 C 38.179688 20.179688 38.269531 20.28125 38.371094 20.339844 C 41.078125 22.171875 43.765625 24.027344 46.429688 25.917969 C 48.664063 27.511719 50.898438 29.117188 53.039063 30.835938 C 53.609375 31.292969 54.171875 31.765625 54.703125 32.273438 C 55.699219 33.199219 56.277344 34.523438 56.429688 35.863281 C 56.449219 39.15625 56.429688 42.453125 56.4375 45.746094 C 54.148438 45.746094 51.855469 45.746094 49.566406 45.746094 C 48.3125 45.742188 47.0625 45.578125 45.84375 45.28125 C 44.234375 44.945313 42.917969 43.761719 42.0625 42.398438 C 43.023438 42.035156 43.988281 41.691406 44.941406 41.3125 C 45.433594 41.839844 45.996094 42.328125 46.695313 42.546875 C 47.898438 42.910156 49.21875 42.960938 50.414063 42.535156 C 51.824219 42.039063 52.941406 40.792969 53.285156 39.339844 C 53.566406 38.175781 53.347656 36.953125 52.9375 35.847656 C 52.484375 34.679688 51.816406 33.601563 51 32.648438 C 50.125 31.667969 49.105469 30.824219 48.105469 29.96875 C 46.757813 28.832031 45.375 27.738281 43.984375 26.65625 C 43.109375 25.972656 42.230469 25.292969 41.316406 24.667969 C 39.703125 23.527344 38.101563 22.375 36.484375 21.246094 C 36.992188 20.863281 37.535156 20.523438 38.058594 20.164063 "/>
<path style=" stroke:none;fill-rule:nonzero;fill:rgb(55.699158%,50.999451%,19.198608%);fill-opacity:1;" d="M 20.792969 42.652344 C 20.550781 42.179688 20.304688 41.703125 19.964844 41.292969 C 19.808594 41.101563 19.628906 40.929688 19.496094 40.722656 C 20.605469 40.808594 21.710938 40.589844 22.773438 40.273438 C 23.367188 40.101563 23.953125 39.898438 24.527344 39.660156 C 24.53125 40.660156 24.523438 41.660156 24.53125 42.660156 C 23.285156 42.65625 22.035156 42.675781 20.792969 42.652344 Z M 27.515625 35.019531 C 27.28125 35.199219 27.101563 35.449219 26.847656 35.609375 C 26.171875 36.070313 25.433594 36.429688 24.699219 36.789063 C 24.074219 37.070313 23.449219 37.375 22.78125 37.527344 C 21.605469 37.804688 20.40625 37.941406 19.203125 38.03125 C 18.097656 38.105469 16.988281 38.101563 15.886719 37.960938 C 14.722656 37.824219 13.507813 37.695313 12.476563 37.09375 C 12.058594 36.828125 11.628906 36.5 11.449219 36.023438 C 11.273438 35.449219 11.527344 34.859375 11.832031 34.378906 C 12.472656 33.390625 13.34375 32.582031 14.144531 31.722656 C 15.664063 30.1875 17.367188 28.84375 19.097656 27.546875 C 20.644531 26.390625 22.238281 25.304688 23.851563 24.246094 C 23.257813 23.734375 22.671875 23.214844 22.078125 22.707031 C 20.144531 23.894531 18.257813 25.152344 16.414063 26.476563 C 14.246094 28.050781 12.121094 29.710938 10.238281 31.625 C 9.488281 32.402344 8.769531 33.222656 8.214844 34.15625 C 7.902344 34.675781 7.636719 35.242188 7.550781 35.851563 C 7.433594 37.054688 7.824219 38.324219 8.6875 39.191406 C 9.511719 39.996094 10.566406 40.519531 11.625 40.945313 C 13.152344 41.542969 14.75 41.941406 16.246094 42.613281 C 16.738281 42.847656 17.238281 43.105469 17.601563 43.523438 C 17.816406 43.761719 17.894531 44.082031 17.964844 44.382813 C 18.0625 44.824219 18.054688 45.328125 17.753906 45.691406 C 18.855469 45.722656 19.960938 45.695313 21.0625 45.707031 C 23.214844 45.695313 25.367188 45.726563 27.515625 45.6875 C 27.523438 42.128906 27.523438 38.574219 27.515625 35.019531 "/>
<path style=" stroke:none;fill-rule:nonzero;fill:rgb(55.699158%,50.999451%,19.198608%);fill-opacity:1;" d="M 30.484375 23.050781 C 30.609375 22.941406 30.742188 23.078125 30.855469 23.132813 C 31.207031 23.367188 31.597656 23.542969 31.917969 23.816406 C 29.699219 25.40625 27.480469 26.996094 25.292969 28.628906 C 24.8125 28.964844 24.386719 29.410156 24.175781 29.964844 C 24.027344 30.316406 24.246094 30.714844 24.546875 30.90625 C 24.878906 31.085938 25.265625 31.101563 25.636719 31.109375 C 27.519531 31.109375 29.40625 31.105469 31.289063 31.109375 C 31.636719 31.109375 32 31.03125 32.257813 30.789063 C 32.472656 30.59375 32.542969 30.257813 32.4375 29.984375 C 32.269531 29.484375 31.859375 29.125 31.5 28.757813 C 30.710938 27.972656 29.808594 27.308594 28.964844 26.589844 C 29.449219 26.234375 29.921875 25.863281 30.414063 25.515625 C 32.183594 26.914063 33.953125 28.316406 35.636719 29.820313 C 36.15625 30.324219 36.765625 30.789063 37.042969 31.480469 C 37.289063 32.0625 37.320313 32.78125 36.964844 33.320313 C 36.511719 34.011719 35.613281 34.148438 34.851563 34.109375 C 30.640625 34.105469 26.433594 34.109375 22.222656 34.105469 C 21.386719 34.117188 20.519531 33.808594 19.964844 33.164063 C 19.585938 32.734375 19.378906 32.109375 19.566406 31.550781 C 19.722656 31.023438 20.1875 30.6875 20.566406 30.320313 C 21.835938 29.203125 23.199219 28.195313 24.554688 27.191406 C 26.507813 25.773438 28.480469 24.390625 30.484375 23.050781 "/>
<path style=" stroke:none;fill-rule:nonzero;fill:rgb(55.699158%,50.999451%,19.198608%);fill-opacity:1;" d="M 13.453125 23.917969 C 13.523438 23.875 13.59375 23.832031 13.667969 23.792969 C 14.082031 24.203125 14.421875 24.675781 14.734375 25.164063 C 12.4375 26.945313 10.148438 28.742188 7.945313 30.640625 C 7.539063 31.007813 7.121094 31.359375 6.730469 31.742188 C 5.75 32.628906 4.953125 33.703125 4.347656 34.871094 C 3.722656 36.097656 3.304688 37.488281 3.476563 38.878906 C 3.621094 40.039063 4.261719 41.117188 5.175781 41.84375 C 6.191406 42.65625 7.554688 42.941406 8.832031 42.804688 C 9.90625 42.722656 10.988281 42.351563 11.78125 41.601563 C 12.628906 41.910156 13.472656 42.234375 14.320313 42.542969 C 14.445313 42.59375 14.578125 42.621094 14.671875 42.722656 C 13.824219 43.703125 12.828125 44.609375 11.609375 45.097656 C 10.21875 45.570313 8.746094 45.742188 7.28125 45.746094 C 4.992188 45.746094 2.703125 45.746094 0.414063 45.746094 C 0.414063 42.472656 0.40625 39.203125 0.414063 35.929688 C 0.542969 34.558594 1.140625 33.222656 2.140625 32.269531 C 3.492188 30.96875 4.996094 29.839844 6.5 28.722656 C 8.773438 27.058594 11.101563 25.464844 13.453125 23.917969 "/>
<path style=" stroke:none;fill-rule:nonzero;fill:rgb(55.699158%,50.999451%,19.198608%);fill-opacity:1;" d="M 40.910156 24.769531 C 41.238281 24.949219 41.515625 25.214844 41.824219 25.425781 C 41.433594 26.511719 41.007813 27.59375 40.75 28.726563 C 40.355469 30.21875 40.402344 31.78125 40.578125 33.304688 C 40.765625 34.695313 41.082031 36.085938 41.664063 37.367188 C 40.785156 37.484375 39.890625 37.4375 39.007813 37.519531 C 38.738281 36.890625 38.589844 36.21875 38.445313 35.554688 C 38.101563 33.949219 38.09375 32.257813 38.507813 30.664063 C 39.011719 28.59375 39.890625 26.636719 40.910156 24.769531 "/>
<path style=" stroke:none;fill-rule:nonzero;fill:rgb(55.699158%,50.999451%,19.198608%);fill-opacity:1;" d="M 37.269531 41.351563 C 36.945313 41.746094 36.722656 42.21875 36.472656 42.660156 C 35.230469 42.660156 33.988281 42.664063 32.746094 42.660156 C 32.742188 41.660156 32.722656 40.664063 32.757813 39.667969 C 33.3125 39.925781 33.910156 40.074219 34.503906 40.222656 C 35.558594 40.472656 36.632813 40.65625 37.707031 40.792969 C 37.582031 40.996094 37.414063 41.164063 37.269531 41.351563 Z M 49.878906 35.378906 C 49.410156 34.542969 48.847656 33.75 48.175781 33.0625 C 47.113281 31.957031 45.945313 30.957031 44.765625 29.976563 C 43.722656 29.128906 42.683594 28.273438 41.59375 27.484375 C 41.28125 28.035156 41.140625 28.660156 41.046875 29.28125 C 41.042969 29.417969 40.976563 29.59375 41.097656 29.699219 C 42.152344 30.730469 43.203125 31.769531 44.171875 32.882813 C 44.566406 33.355469 44.988281 33.824219 45.214844 34.40625 C 45.460938 35.003906 45.644531 35.664063 45.511719 36.3125 C 45.414063 36.898438 45.023438 37.402344 44.527344 37.714844 C 44.078125 38.035156 43.53125 38.164063 42.988281 38.214844 C 41.902344 38.300781 40.808594 38.199219 39.734375 38.054688 C 37.90625 37.804688 36.101563 37.410156 34.3125 36.964844 C 32.820313 36.570313 31.386719 35.957031 30.035156 35.207031 C 30.027344 38.699219 30.023438 42.191406 30.035156 45.683594 C 33.421875 45.683594 36.804688 45.683594 40.191406 45.679688 C 39.820313 45.242188 39.476563 44.660156 39.65625 44.070313 C 39.785156 43.503906 40.261719 43.125 40.710938 42.804688 C 41.359375 42.351563 42.015625 41.90625 42.730469 41.570313 C 44.734375 40.621094 46.96875 40.207031 48.863281 39.019531 C 49.449219 38.644531 50.046875 38.175781 50.269531 37.488281 C 50.503906 36.769531 50.21875 36.015625 49.878906 35.378906 "/>
<path style=" stroke:none;fill-rule:nonzero;fill:rgb(55.699158%,50.999451%,19.198608%);fill-opacity:1;" d="M 16.835938 29.890625 C 17.210938 29.5 17.59375 29.109375 17.988281 28.742188 C 18.683594 30.335938 18.90625 32.109375 18.773438 33.835938 C 18.628906 35.136719 18.253906 36.40625 17.765625 37.617188 C 16.882813 37.550781 16.007813 37.417969 15.128906 37.347656 C 15.734375 36.324219 16.234375 35.226563 16.523438 34.066406 C 16.683594 33.460938 16.734375 32.832031 16.777344 32.207031 C 16.839844 31.4375 16.867188 30.664063 16.835938 29.890625 "/>
<path style=" stroke:none;fill-rule:nonzero;fill:rgb(55.699158%,50.999451%,19.198608%);fill-opacity:1;" d="M 52.84375 53.121094 C 52.683594 53.757813 52.332031 54.375 51.746094 54.707031 C 51.257813 54.996094 50.667969 55.054688 50.109375 55.085938 C 49.191406 55.105469 48.300781 54.8125 47.394531 54.71875 C 46.046875 54.582031 44.636719 55.089844 43.742188 56.117188 C 43.167969 56.773438 42.703125 57.546875 42.464844 58.386719 C 42.464844 58.351563 42.457031 58.277344 42.453125 58.238281 C 42.277344 58.1875 42.332031 58.070313 42.417969 57.964844 C 42.316406 56.070313 42.328125 54.144531 42.734375 52.28125 C 42.960938 51.335938 43.285156 50.355469 43.992188 49.65625 C 44.695313 49.03125 45.480469 48.464844 46.394531 48.199219 C 46.820313 48.074219 47.257813 48.003906 47.703125 47.976563 C 48.738281 47.925781 49.808594 47.890625 50.796875 48.265625 C 51.652344 48.582031 52.492188 49.1875 52.75 50.101563 C 53.015625 51.082031 53.085938 52.128906 52.84375 53.121094 Z M 56.488281 65.210938 C 56.488281 60.023438 56.492188 54.835938 56.488281 49.644531 C 56.492188 49.316406 56.449219 48.976563 56.554688 48.664063 C 56.703125 48.175781 56.949219 47.695313 56.894531 47.171875 C 56.871094 46.871094 56.566406 46.703125 56.300781 46.636719 C 55.949219 46.550781 55.582031 46.523438 55.222656 46.515625 C 54.492188 46.519531 53.777344 46.371094 53.050781 46.34375 C 51.996094 46.257813 50.9375 46.257813 49.878906 46.253906 C 48.222656 46.246094 46.535156 46.574219 45.085938 47.390625 C 44.195313 47.890625 43.394531 48.554688 42.777344 49.367188 C 41.90625 50.65625 41.652344 52.238281 41.46875 53.753906 C 41.351563 54.546875 41.445313 55.347656 41.472656 56.148438 C 41.605469 58.496094 41.820313 60.839844 41.875 63.191406 C 41.882813 64.152344 41.914063 65.125 41.675781 66.0625 C 41.59375 66.511719 41.355469 66.925781 41.371094 67.386719 C 41.367188 67.609375 41.546875 67.785156 41.746094 67.847656 C 42.28125 68.003906 42.835938 67.902344 43.378906 67.898438 C 43.664063 67.882813 44.042969 67.851563 44.160156 67.539063 C 44.234375 67.265625 44.234375 66.957031 44.121094 66.695313 C 43.191406 64.765625 42.664063 62.59375 42.890625 60.449219 C 42.96875 59.824219 43.128906 59.15625 43.597656 58.699219 C 44.191406 58.113281 45.039063 57.894531 45.84375 57.800781 C 46.972656 57.675781 48.050781 58.195313 49.175781 58.101563 C 49.824219 58.054688 50.441406 57.820313 51.003906 57.511719 C 51.914063 57.007813 52.503906 56.082031 52.859375 55.128906 C 52.882813 57.972656 52.863281 60.820313 52.871094 63.664063 C 52.863281 64.359375 52.886719 65.054688 52.847656 65.75 C 52.828125 66.117188 52.6875 66.464844 52.535156 66.796875 C 52.425781 67.027344 52.375 67.347656 52.585938 67.539063 C 52.882813 67.851563 53.351563 67.832031 53.746094 67.859375 C 54.496094 67.859375 55.242188 67.863281 55.992188 67.859375 C 56.398438 67.867188 56.871094 67.714844 57.003906 67.289063 L 57.003906 66.980469 C 56.820313 66.394531 56.535156 65.832031 56.488281 65.210938 "/>
<path style=" stroke:none;fill-rule:nonzero;fill:rgb(55.699158%,50.999451%,19.198608%);fill-opacity:1;" d="M 18.527344 46.636719 C 19.007813 46.574219 19.492188 46.59375 19.976563 46.589844 C 20.519531 46.59375 21.078125 46.578125 21.605469 46.730469 C 21.804688 46.792969 22.050781 46.921875 22.054688 47.164063 C 22.007813 47.746094 21.695313 48.28125 21.707031 48.871094 C 21.707031 54.421875 21.703125 59.976563 21.707031 65.527344 C 21.777344 66.046875 21.933594 66.554688 22.019531 67.070313 C 22.082031 67.390625 21.855469 67.75 21.53125 67.804688 C 20.394531 67.8125 19.261719 67.804688 18.125 67.804688 C 17.804688 67.746094 17.566406 67.402344 17.636719 67.082031 C 17.738281 66.5625 17.902344 66.054688 17.953125 65.53125 C 17.957031 59.980469 17.953125 54.425781 17.953125 48.875 C 17.964844 48.28125 17.652344 47.742188 17.605469 47.160156 C 17.664063 46.742188 18.191406 46.683594 18.527344 46.636719 "/>
<path style=" stroke:none;fill-rule:nonzero;fill:rgb(55.699158%,50.999451%,19.198608%);fill-opacity:1;" d="M 12.558594 63.039063 C 12.433594 63.742188 12.09375 64.386719 11.671875 64.957031 C 11.292969 65.449219 10.882813 65.9375 10.34375 66.261719 C 9.433594 66.8125 8.324219 66.960938 7.277344 66.84375 C 6.574219 66.742188 5.8125 66.5625 5.3125 66.019531 C 4.640625 65.269531 4.335938 64.257813 4.238281 63.273438 C 4.234375 59.941406 4.230469 56.605469 4.238281 53.273438 C 5.464844 53.074219 6.675781 53.492188 7.816406 53.898438 C 9.121094 54.351563 10.160156 55.339844 10.929688 56.460938 C 11.648438 57.519531 12.210938 58.699219 12.5 59.953125 C 12.636719 60.480469 12.570313 61.03125 12.621094 61.574219 C 12.671875 62.0625 12.632813 62.554688 12.558594 63.039063 Z M 4.222656 50.035156 C 4.292969 49.351563 4.65625 48.703125 5.1875 48.273438 C 5.816406 47.773438 6.648438 47.625 7.433594 47.671875 C 8.285156 47.71875 9.175781 47.921875 9.832031 48.492188 C 10.449219 49.023438 10.738281 49.855469 10.734375 50.652344 C 10.746094 51.007813 10.589844 51.335938 10.4375 51.644531 C 10.167969 52.144531 9.820313 52.625 9.332031 52.933594 C 9.09375 53.078125 8.808594 53.191406 8.527344 53.140625 C 7.59375 52.90625 6.691406 52.523438 5.726563 52.464844 C 5.226563 52.402344 4.726563 52.378906 4.230469 52.363281 C 4.214844 51.585938 4.21875 50.808594 4.222656 50.035156 Z M 15.921875 58.347656 C 15.203125 56.988281 14.050781 55.90625 12.777344 55.066406 C 11.855469 54.445313 10.84375 53.984375 9.816406 53.574219 C 10.988281 53.296875 12.15625 52.890625 13.136719 52.179688 C 13.816406 51.683594 14.40625 50.996094 14.589844 50.15625 C 14.800781 49.265625 14.609375 48.21875 13.90625 47.585938 C 13.230469 46.96875 12.28125 46.726563 11.386719 46.714844 C 7.949219 46.710938 4.515625 46.714844 1.082031 46.714844 C 0.796875 46.71875 0.515625 46.695313 0.234375 46.726563 C 0.09375 46.746094 0.03125 46.898438 0 47.023438 L 0 47.210938 C 0.152344 47.816406 0.457031 48.390625 0.453125 49.027344 C 0.453125 54.292969 0.453125 59.558594 0.453125 64.824219 C 0.453125 65.183594 0.480469 65.550781 0.386719 65.898438 C 0.273438 66.351563 0.0703125 66.78125 0 67.246094 L 0 67.5 C 0.253906 67.890625 0.761719 67.953125 1.1875 68 L 1.839844 68 C 4.113281 67.761719 6.398438 67.882813 8.679688 67.871094 C 9.71875 67.855469 10.769531 67.933594 11.789063 67.710938 C 13.132813 67.445313 14.433594 66.796875 15.3125 65.730469 C 16.136719 64.742188 16.550781 63.464844 16.636719 62.195313 C 16.769531 60.878906 16.550781 59.519531 15.921875 58.347656 "/>
<path style=" stroke:none;fill-rule:nonzero;fill:rgb(55.699158%,50.999451%,19.198608%);fill-opacity:1;" d="M 36.800781 63.207031 C 36.558594 64.238281 35.902344 65.117188 35.160156 65.851563 C 34.253906 66.691406 32.949219 66.957031 31.746094 66.863281 C 31.117188 66.800781 30.476563 66.667969 29.941406 66.324219 C 29.273438 65.84375 28.910156 65.058594 28.695313 64.289063 C 28.601563 63.902344 28.503906 63.511719 28.515625 63.117188 C 28.515625 59.835938 28.511719 56.558594 28.515625 53.28125 C 29.421875 53.105469 30.34375 53.335938 31.210938 53.59375 C 31.972656 53.84375 32.753906 54.101563 33.40625 54.582031 C 34.589844 55.433594 35.445313 56.660156 36.070313 57.960938 C 36.515625 58.925781 36.894531 59.957031 36.882813 61.03125 C 36.898438 61.757813 36.972656 62.496094 36.800781 63.207031 Z M 28.484375 50.421875 C 28.4375 49.554688 28.882813 48.683594 29.585938 48.183594 C 30.25 47.710938 31.105469 47.613281 31.898438 47.679688 C 32.746094 47.757813 33.636719 48 34.246094 48.625 C 34.742188 49.113281 34.976563 49.808594 35.003906 50.492188 C 35.042969 50.90625 34.894531 51.300781 34.707031 51.65625 C 34.457031 52.136719 34.117188 52.578125 33.675781 52.890625 C 33.429688 53.050781 33.140625 53.175781 32.839844 53.148438 C 32.1875 52.976563 31.546875 52.769531 30.898438 52.59375 C 30.113281 52.441406 29.308594 52.394531 28.511719 52.359375 C 28.457031 51.71875 28.503906 51.066406 28.484375 50.421875 Z M 40.941406 61.1875 C 40.914063 59.703125 40.324219 58.261719 39.382813 57.125 C 38.015625 55.445313 36.074219 54.339844 34.074219 53.570313 C 34.613281 53.457031 35.148438 53.300781 35.664063 53.105469 C 36.695313 52.707031 37.71875 52.148438 38.382813 51.238281 C 39.164063 50.1875 39.15625 48.542969 38.21875 47.59375 C 37.410156 46.828125 36.230469 46.640625 35.164063 46.710938 C 31.757813 46.714844 28.347656 46.714844 24.941406 46.714844 C 24.796875 46.707031 24.632813 46.722656 24.546875 46.859375 C 24.371094 47.113281 24.460938 47.445313 24.5625 47.714844 C 24.722656 48.101563 24.742188 48.53125 24.742188 48.945313 C 24.738281 54.394531 24.742188 59.84375 24.738281 65.289063 C 24.761719 66.023438 24.1875 66.632813 24.226563 67.371094 C 24.28125 67.742188 24.695313 67.886719 25.019531 67.914063 C 25.558594 67.9375 26.101563 67.910156 26.640625 67.925781 C 26.675781 67.9375 26.75 67.960938 26.789063 67.976563 C 27.050781 68 27.3125 67.960938 27.574219 67.910156 C 29.351563 67.871094 31.132813 67.867188 32.914063 67.863281 C 34.132813 67.851563 35.375 67.953125 36.558594 67.609375 C 37.871094 67.261719 39.097656 66.5 39.867188 65.367188 C 40.707031 64.152344 40.980469 62.636719 40.941406 61.1875 "/>
<path style=" stroke:none;fill-rule:nonzero;fill:rgb(99.198914%,98.799133%,97.599792%);fill-opacity:1;" d="M 0 47.210938 C 0.152344 47.816406 0.457031 48.390625 0.453125 49.027344 C 0.453125 54.292969 0.453125 59.558594 0.453125 64.824219 C 0.453125 65.183594 0.480469 65.550781 0.386719 65.898438 C 0.273438 66.351563 0.0703125 66.78125 0 67.246094 L 0 47.210938 "/>
<path style=" stroke:none;fill-rule:nonzero;fill:rgb(99.198914%,98.799133%,97.599792%);fill-opacity:1;" d="M 0 67.5 C 0.253906 67.890625 0.761719 67.953125 1.1875 68 L 0 68 L 0 67.5 "/>
</g>
</svg>
